<svg width="414" height="399" viewBox="0 0 414 399" fill="none" xmlns="http://www.w3.org/2000/svg">
<g clip-path="url(#clip0)">
<path d="M0 -105V277.053C0 277.053 32.2351 345.788 115.112 337.811C197.989 329.835 215.177 286.876 315.243 366.049C315.243 366.049 350.543 399.185 415 397.967V-105H0Z" fill="#E4E9EA"/>
<path d="M405.149 399C352.355 399 321.072 374.662 320.738 374.381C258.185 325.238 219.838 334.61 166.778 347.6C152.705 351.044 138.138 354.609 121.529 357.6C40.3493 372.232 0.400556 329.67 0 329.229L0.988037 328.335C1.37524 328.762 40.8967 370.777 121.275 356.291C137.858 353.301 152.385 349.749 166.444 346.305C219.878 333.235 258.478 323.796 321.553 373.34C321.94 373.647 359.899 403.152 422.853 396.757L422.987 398.079C416.805 398.72 410.85 399 405.149 399Z" fill="#E4E9EA"/>
<circle cx="156.5" cy="274.5" r="5.5" fill="#457B9D"/>
<circle cx="173.5" cy="274.5" r="5" stroke="#457B9D"/>
<circle cx="190.5" cy="274.5" r="5" stroke="#457B9D"/>
<circle cx="207.5" cy="274.5" r="5" stroke="#457B9D"/>
<circle cx="224.5" cy="274.5" r="5" stroke="#457B9D"/>
<circle cx="241.5" cy="274.5" r="5" stroke="#457B9D"/>
<circle cx="258.5" cy="274.5" r="5" stroke="#457B9D"/>
</g>
<defs>
<clipPath id="clip0">
<rect width="423" height="504" fill="white" transform="translate(0 -105)"/>
</clipPath>
</defs>
</svg>
